<svg width="17" height="18" viewBox="0 0 17 18" fill="none" xmlns="http://www.w3.org/2000/svg">
<path d="M5.11735 18C4.68367 18 4.31505 17.8423 4.01148 17.5269C3.70791 17.2115 3.55612 16.8285 3.55612 16.378C3.55612 15.9274 3.70791 15.5444 4.01148 15.229C4.31505 14.9136 4.68367 14.7559 5.11735 14.7559C5.55102 14.7559 5.91964 14.9136 6.22321 15.229C6.52679 15.5444 6.67857 15.9274 6.67857 16.378C6.67857 16.8285 6.52679 17.2115 6.22321 17.5269C5.91964 17.8423 5.55102 18 5.11735 18ZM13.7908 18C13.3571 18 12.9885 17.8423 12.6849 17.5269C12.3814 17.2115 12.2296 16.8285 12.2296 16.378C12.2296 15.9274 12.3814 15.5444 12.6849 15.229C12.9885 14.9136 13.3571 14.7559 13.7908 14.7559C14.2245 14.7559 14.5931 14.9136 14.8967 15.229C15.2003 15.5444 15.352 15.9274 15.352 16.378C15.352 16.8285 15.2003 17.2115 14.8967 17.5269C14.5931 17.8423 14.2245 18 13.7908 18ZM3.9898 3.13141L6.375 8.26783H12.6199L15.3304 3.13141H3.9898ZM3.33929 1.77972H16.111C16.4435 1.77972 16.6964 1.93742 16.8699 2.25282C17.0434 2.56821 17.0434 2.8836 16.8699 3.199L13.9426 8.67334C13.7836 8.9587 13.5776 9.18773 13.3246 9.36045C13.0716 9.53317 12.7934 9.61952 12.4898 9.61952H5.91964L4.70536 11.9625H15.352V13.3141H4.90051C4.29337 13.3141 3.85608 13.1039 3.58865 12.6834C3.32122 12.2628 3.32483 11.7897 3.59949 11.2641L4.98725 8.60576L1.69133 1.35169H0V0H2.53699L3.33929 1.77972ZM6.375 8.26783H12.6199H6.375Z" fill="white"/>
</svg>
