<svg width="126" height="126" viewBox="0 0 126 126" fill="none" xmlns="http://www.w3.org/2000/svg">
<path d="M0.5 94.25V7.0625C0.5 5.60417 1.17708 4.14583 2.53125 2.6875C3.88542 1.22917 5.29167 0.5 6.75 0.5H87.8437C89.4062 0.5 90.8646 1.20313 92.2187 2.60938C93.5729 4.01563 94.25 5.5 94.25 7.0625V62.6875C94.25 64.1458 93.5729 65.6042 92.2187 67.0625C90.8646 68.5208 89.4062 69.25 87.8437 69.25H25.5L0.5 94.25ZM31.9062 100.5C30.4479 100.5 29.0156 99.7708 27.6094 98.3125C26.2031 96.8542 25.5 95.3958 25.5 93.9375V78.625H103.625V25.5H119.25C120.708 25.5 122.115 26.2292 123.469 27.6875C124.823 29.1458 125.5 30.6563 125.5 32.2188V125.344L100.656 100.5H31.9062ZM84.875 9.875H9.875V71.5938L21.5937 59.875H84.875V9.875ZM9.875 9.875V71.5938V9.875Z" fill="white"/>
</svg>
