<svg width="130" height="131" viewBox="0 0 130 131" fill="none" xmlns="http://www.w3.org/2000/svg">
<path d="M88.8875 96.8625L96.2 89.55L70.3625 63.55V30.8875H60.6125V67.45L88.8875 96.8625ZM65 130.5C56.1167 130.5 47.7208 128.794 39.8125 125.381C31.9042 121.969 24.9979 117.31 19.0938 111.406C13.1896 105.502 8.53125 98.5958 5.11875 90.6875C1.70625 82.7792 0 74.3833 0 65.5C0 56.6167 1.70625 48.2208 5.11875 40.3125C8.53125 32.4042 13.1896 25.4979 19.0938 19.5938C24.9979 13.6896 31.9042 9.03125 39.8125 5.61875C47.7208 2.20625 56.1167 0.5 65 0.5C73.8833 0.5 82.2792 2.20625 90.1875 5.61875C98.0958 9.03125 105.002 13.6896 110.906 19.5938C116.81 25.4979 121.469 32.4042 124.881 40.3125C128.294 48.2208 130 56.6167 130 65.5C130 74.3833 128.294 82.7792 124.881 90.6875C121.469 98.5958 116.81 105.502 110.906 111.406C105.002 117.31 98.0958 121.969 90.1875 125.381C82.2792 128.794 73.8833 130.5 65 130.5ZM65 120.75C80.1667 120.75 93.1667 115.333 104 104.5C114.833 93.6667 120.25 80.6667 120.25 65.5C120.25 50.3333 114.833 37.3333 104 26.5C93.1667 15.6667 80.1667 10.25 65 10.25C49.8333 10.25 36.8333 15.6667 26 26.5C15.1667 37.3333 9.75 50.3333 9.75 65.5C9.75 80.6667 15.1667 93.6667 26 104.5C36.8333 115.333 49.8333 120.75 65 120.75Z" fill="#D4D4D4"/>
</svg>
