<svg width="154" height="123" viewBox="0 0 154 123" fill="none" xmlns="http://www.w3.org/2000/svg">
<path d="M0 123V105.703H16.555V11.5312C16.555 8.32812 17.6779 5.60547 19.9237 3.36328C22.1696 1.12109 24.8967 0 28.105 0H147.455V11.5312H28.105V105.703H73.15V123H0ZM92.2075 123C90.0258 123 88.2292 122.135 86.8175 120.405C85.4058 118.676 84.7 116.722 84.7 114.544V30.5578C84.7 28.3797 85.4058 26.5859 86.8175 25.1766C88.2292 23.7672 90.0258 23.0625 92.2075 23.0625H144.567C147.006 23.0625 149.188 23.7352 151.113 25.0805C153.037 26.4258 154 28.2516 154 30.5578V114.544C154 116.978 153.07 118.996 151.209 120.598C149.348 122.199 147.134 123 144.567 123H92.2075ZM96.25 105.703H142.45V34.5938H96.25V105.703Z" fill="#D4D4D4"/>
</svg>
