<svg width="62" height="123" viewBox="0 0 62 123" fill="none" xmlns="http://www.w3.org/2000/svg">
<path d="M25.875 123V108.65C19.3833 107.511 14.059 105.034 9.90208 101.219C5.74514 97.4035 2.75556 92.5917 0.933334 86.7833L10.5 82.8542C12.4361 88.3208 15.2264 92.3924 18.8708 95.0688C22.5153 97.7451 26.9 99.0833 32.025 99.0833C37.4917 99.0833 41.9903 97.7167 45.5208 94.9833C49.0514 92.25 50.8167 88.4917 50.8167 83.7083C50.8167 78.6972 49.2507 74.825 46.1188 72.0917C42.9868 69.3583 37.0931 66.5681 28.4375 63.7208C20.2375 61.1014 14.116 57.6278 10.0729 53.3C6.02986 48.9722 4.00833 43.5625 4.00833 37.0708C4.00833 30.8069 6.02986 25.5681 10.0729 21.3542C14.116 17.1403 19.3833 14.7486 25.875 14.1792V0H36.125V14.1792C41.25 14.7486 45.6632 16.4285 49.3646 19.2188C53.066 22.009 55.8847 25.5681 57.8208 29.8958L48.2542 33.9958C46.6597 30.3514 44.5243 27.7035 41.8479 26.0521C39.1715 24.4007 35.6694 23.575 31.3417 23.575C26.1028 23.575 21.9458 24.7708 18.8708 27.1625C15.7958 29.5542 14.2583 32.8 14.2583 36.9C14.2583 41.2278 15.9667 44.7299 19.3833 47.4062C22.8 50.0826 29.1208 52.8444 38.3458 55.6917C46.0903 58.0833 51.8132 61.5285 55.5146 66.0271C59.216 70.5257 61.0667 76.1917 61.0667 83.025C61.0667 90.2 58.9597 95.9799 54.7458 100.365C50.5319 104.749 44.325 107.568 36.125 108.821V123H25.875Z" fill="#D4D4D4"/>
</svg>
