<svg width="11" height="10" viewBox="0 0 11 10" fill="none" xmlns="http://www.w3.org/2000/svg">
<path d="M5.5 0C6.99435 0 7.1808 0.00499997 7.7671 0.03C8.35285 0.055 8.7516 0.1385 9.1025 0.2625C9.4655 0.3895 9.7713 0.5615 10.0771 0.839C10.3568 1.08895 10.5732 1.39129 10.7113 1.725C10.8471 2.0435 10.9395 2.4065 10.967 2.939C10.9929 3.472 11 3.6415 11 5C11 6.3585 10.9945 6.528 10.967 7.061C10.9395 7.5935 10.8471 7.956 10.7113 8.275C10.5736 8.60889 10.3571 8.91131 10.0771 9.161C9.80208 9.41516 9.46952 9.61188 9.1025 9.7375C8.75215 9.861 8.35285 9.945 7.7671 9.97C7.1808 9.9935 6.99435 10 5.5 10C4.00565 10 3.8192 9.995 3.2329 9.97C2.64715 9.945 2.2484 9.861 1.8975 9.7375C1.53028 9.61224 1.19764 9.41547 0.9229 9.161C0.643174 8.91109 0.426762 8.60873 0.28875 8.275C0.15235 7.9565 0.0605 7.5935 0.033 7.061C0.00714997 6.528 0 6.3585 0 5C0 3.6415 0.00549997 3.472 0.033 2.939C0.0605 2.406 0.15235 2.044 0.28875 1.725C0.42638 1.39109 0.642842 1.08866 0.9229 0.839C1.19772 0.584616 1.53034 0.387865 1.8975 0.2625C2.2484 0.1385 2.6466 0.055 3.2329 0.03C3.8192 0.00649997 4.00565 0 5.5 0ZM5.5 2.5C4.77065 2.5 4.07118 2.76339 3.55546 3.23223C3.03973 3.70107 2.75 4.33696 2.75 5C2.75 5.66304 3.03973 6.29893 3.55546 6.76777C4.07118 7.23661 4.77065 7.5 5.5 7.5C6.22935 7.5 6.92882 7.23661 7.44454 6.76777C7.96027 6.29893 8.25 5.66304 8.25 5C8.25 4.33696 7.96027 3.70107 7.44454 3.23223C6.92882 2.76339 6.22935 2.5 5.5 2.5ZM9.075 2.375C9.075 2.20924 9.00257 2.05027 8.87364 1.93306C8.74471 1.81585 8.56984 1.75 8.3875 1.75C8.20516 1.75 8.0303 1.81585 7.90136 1.93306C7.77243 2.05027 7.7 2.20924 7.7 2.375C7.7 2.54076 7.77243 2.69973 7.90136 2.81694C8.0303 2.93415 8.20516 3 8.3875 3C8.56984 3 8.74471 2.93415 8.87364 2.81694C9.00257 2.69973 9.075 2.54076 9.075 2.375ZM5.5 3.5C5.93761 3.5 6.35729 3.65804 6.66673 3.93934C6.97616 4.22064 7.15 4.60218 7.15 5C7.15 5.39782 6.97616 5.77936 6.66673 6.06066C6.35729 6.34196 5.93761 6.5 5.5 6.5C5.06239 6.5 4.64271 6.34196 4.33327 6.06066C4.02384 5.77936 3.85 5.39782 3.85 5C3.85 4.60218 4.02384 4.22064 4.33327 3.93934C4.64271 3.65804 5.06239 3.5 5.5 3.5Z" fill="#F8F8F8"/>
</svg>
