<svg width="99" height="123" viewBox="0 0 99 123" fill="none" xmlns="http://www.w3.org/2000/svg">
<path d="M24.4462 96.8625H73.9538V87.6375H24.4462V96.8625ZM24.4462 70.725H73.9538V61.5H24.4462V70.725ZM9.225 123C6.765 123 4.6125 122.077 2.7675 120.232C0.922499 118.387 0 116.235 0 113.775V9.225C0 6.765 0.922499 4.6125 2.7675 2.7675C4.6125 0.9225 6.765 0 9.225 0H64.7288L98.4 33.6712V113.775C98.4 116.235 97.4775 118.387 95.6325 120.232C93.7875 122.077 91.635 123 89.175 123H9.225ZM60.1162 37.8225V9.225H9.225V113.775H89.175V37.8225H60.1162ZM9.225 9.225V37.8225V9.225V113.775V9.225Z" fill="#46839B"/>
</svg>
