<svg width="11" height="10" viewBox="0 0 11 10" fill="none" xmlns="http://www.w3.org/2000/svg">
<path d="M9.77778 0C10.1019 0 10.4128 0.117063 10.642 0.325437C10.8712 0.533811 11 0.816426 11 1.11111V8.88889C11 9.18357 10.8712 9.46619 10.642 9.67456C10.4128 9.88294 10.1019 10 9.77778 10H1.22222C0.898069 10 0.587192 9.88294 0.357981 9.67456C0.128769 9.46619 0 9.18357 0 8.88889V1.11111C0 0.816426 0.128769 0.533811 0.357981 0.325437C0.587192 0.117063 0.898069 0 1.22222 0H9.77778ZM9.47222 8.61111V5.66667C9.47222 5.18633 9.26233 4.72567 8.88871 4.38602C8.5151 4.04637 8.00837 3.85556 7.48 3.85556C6.96056 3.85556 6.35556 4.14444 6.06222 4.57778V3.96111H4.35722V8.61111H6.06222V5.87222C6.06222 5.44444 6.44111 5.09444 6.91167 5.09444C7.13857 5.09444 7.35619 5.17639 7.51664 5.32225C7.67708 5.46811 7.76722 5.66594 7.76722 5.87222V8.61111H9.47222ZM2.37111 3.08889C2.6434 3.08889 2.90454 2.99056 3.09707 2.81552C3.28961 2.64049 3.39778 2.40309 3.39778 2.15556C3.39778 1.63889 2.93944 1.21667 2.37111 1.21667C2.0972 1.21667 1.83451 1.31559 1.64083 1.49166C1.44714 1.66774 1.33833 1.90655 1.33833 2.15556C1.33833 2.67222 1.80278 3.08889 2.37111 3.08889ZM3.22056 8.61111V3.96111H1.52778V8.61111H3.22056Z" fill="#F8F8F8"/>
</svg>
