<svg width="93" height="39" viewBox="0 0 93 39" fill="none" xmlns="http://www.w3.org/2000/svg">
<path d="M9.8667 0L11.1829 1.29049L20.1806 10.1101V0H9.8667ZM8.25222 1.11105V22.5107L19.1549 11.8109L8.25222 1.11105ZM13.5871 1.51131H18.6406V6.46494L13.5871 1.51131ZM88.92 9.36843C88.3483 9.36843 87.8131 9.46563 87.3145 9.65953C86.8234 9.85393 86.3909 10.1281 86.0169 10.4805C85.6503 10.8259 85.3604 11.2322 85.1477 11.6997C84.9425 12.1677 84.8396 12.6717 84.8396 13.211C84.8396 13.7508 84.9423 14.2578 85.1477 14.7328C85.3604 15.2003 85.6503 15.6111 86.0169 15.9635C86.3909 16.3164 86.8234 16.5925 87.3145 16.7939C87.8131 16.9883 88.3483 17.086 88.92 17.086C89.492 17.086 90.023 16.9883 90.5143 16.7939C91.0129 16.5925 91.446 16.3164 91.8125 15.9635C92.1864 15.6111 92.4758 15.2003 92.6812 14.7328C92.8937 14.2578 93 13.7508 93 13.211C93 12.6717 92.8934 12.1707 92.6812 11.7107C92.4758 11.2426 92.1864 10.8329 91.8125 10.4805C91.446 10.1281 91.0129 9.85393 90.5143 9.65953C90.023 9.46563 89.492 9.36843 88.92 9.36843ZM28.1244 9.43273V11.0308H30.7637V14.495C30.7637 14.7901 30.691 15.0129 30.5442 15.1645C30.4048 15.3155 30.2102 15.3907 29.9609 15.3907C29.741 15.3907 29.4843 15.3225 29.191 15.1859C28.9052 15.0423 28.6231 14.8295 28.3447 14.5489L27.4209 15.8658C27.7655 16.2546 28.1576 16.5566 28.5976 16.7725C29.0448 16.9808 29.5467 17.086 30.1038 17.086C30.925 17.086 31.578 16.8662 32.0619 16.427C32.5459 15.9809 32.7876 15.3519 32.7876 14.5384V9.43273H28.1244ZM34.0193 9.43273V13.8804C34.0193 14.5424 34.1624 15.1176 34.4483 15.6066C34.7416 16.0961 35.1521 16.4739 35.68 16.7401C36.2079 17.0062 36.8274 17.1398 37.5386 17.1398C38.2498 17.1398 38.8654 17.0062 39.3859 16.7401C39.9065 16.4739 40.3061 16.0961 40.5848 15.6066C40.8707 15.1176 41.0137 14.5424 41.0137 13.8804V9.43273H39.0012V13.8804C39.0012 14.3769 38.8658 14.7682 38.5946 15.0563C38.3306 15.3369 37.982 15.477 37.5494 15.477C37.1167 15.477 36.7539 15.3334 36.4606 15.0458C36.1746 14.7577 36.0319 14.3694 36.0319 13.8804V9.43273H34.0193ZM42.3884 9.43273V16.9998H44.1813V12.1533L46.1608 16.2441H47.4583L49.4272 12.1533L49.4403 16.9998H51.2217V9.43273H49.0333L46.8121 13.8909L44.5796 9.43273H42.3884ZM55.2228 9.43273L51.9129 16.9998H53.9803L54.5206 15.6395H57.8494L58.3791 16.9998H60.5235L57.2903 9.43273H55.2228ZM61.2163 9.43273V16.9998H63.0972V12.4359L66.5945 16.9998H68.3544V9.43273H66.4958V14.0305L62.9872 9.43273H61.2163ZM70.1252 9.44271V16.9978H71.4226V14.6989H73.1936C74.1613 14.6989 74.9088 14.4646 75.4367 13.9971C75.972 13.5225 76.2395 12.8601 76.2395 12.0112C76.2395 11.1983 75.972 10.5682 75.4367 10.1221C74.9088 9.669 74.1613 9.44271 73.1936 9.44271H70.1252ZM77.5264 9.44271V16.9978H78.8239V14.6989H80.6497C80.7679 14.6989 80.8816 14.6989 80.9928 14.6889L82.4096 16.9988H83.8831L82.1467 14.4616C82.4499 14.348 82.7135 14.1935 82.9372 13.9981C83.4798 13.523 83.7508 12.8606 83.7508 12.0117C83.7508 11.1993 83.4798 10.5697 82.9372 10.1236C82.4021 9.67 81.6395 9.4432 80.6497 9.4432L77.5264 9.44271ZM88.9329 10.4456C89.3068 10.4456 89.6588 10.5179 89.9888 10.6619C90.3261 10.7985 90.6195 10.9929 90.8687 11.2451C91.118 11.4968 91.312 11.7914 91.4514 12.1294C91.5979 12.4603 91.6717 12.8207 91.6717 13.209C91.6717 13.5978 91.5975 13.9612 91.4514 14.2996C91.312 14.6376 91.118 14.9357 90.8687 15.1949C90.6195 15.4466 90.3261 15.645 89.9888 15.789C89.6588 15.9331 89.3068 16.0044 88.9329 16.0044C88.559 16.0044 88.2035 15.9331 87.8663 15.789C87.5363 15.645 87.2428 15.4466 86.9861 15.1949C86.7296 14.9357 86.528 14.6376 86.3814 14.2996C86.2347 13.9612 86.162 13.5978 86.162 13.209C86.162 12.8207 86.231 12.4603 86.3708 12.1294C86.5174 11.7914 86.719 11.4968 86.9756 11.2451C87.2322 10.9929 87.5257 10.7985 87.8556 10.6619C88.1928 10.5179 88.5517 10.4456 88.9329 10.4456ZM71.4226 10.5323H73.1385C73.7324 10.5323 74.1906 10.6584 74.5131 10.9102C74.8358 11.1549 74.9971 11.5322 74.9971 12.0431C74.9971 12.5755 74.8358 12.9718 74.5131 13.231C74.1906 13.4827 73.7324 13.6083 73.1385 13.6083H71.4226V10.5323ZM78.8239 10.5323H80.6497C81.2436 10.5323 81.7017 10.6584 82.0243 10.9102C82.3543 11.1549 82.5191 11.5322 82.5191 12.0431C82.5191 12.5755 82.3543 12.9718 82.0243 13.231C81.7017 13.4827 81.2436 13.6083 80.6497 13.6083H78.8239V10.5323ZM56.2015 11.4071L57.2688 14.1481H55.1127L56.2015 11.4071ZM19.4108 12.562L8.25222 23.5131V39L19.4108 28.049H19.4109L19.4108 12.562ZM90.559 21.0183H90.5302C90.3872 21.0183 90.2538 21.0632 90.1301 21.1314C90.0041 21.2072 89.9025 21.3064 89.8253 21.4305C89.7539 21.5546 89.7176 21.6927 89.7176 21.8432C89.7176 21.9569 89.7396 22.0675 89.7838 22.1757C89.8332 22.2834 89.9019 22.3861 89.9897 22.4833C89.9404 22.5032 89.8872 22.5132 89.8328 22.5181C89.7834 22.5231 89.7288 22.5231 89.6682 22.5231C89.5362 22.5231 89.3876 22.5082 89.2226 22.4833C89.0576 22.4484 88.9063 22.413 88.7689 22.3701L88.5627 22.9528C88.7552 23.0121 88.9533 23.058 89.1567 23.0904C89.3603 23.1253 89.5335 23.1402 89.6764 23.1402C89.9624 23.1402 90.2323 23.0859 90.4852 22.9782C90.7437 22.8701 90.952 22.719 91.1115 22.5246C91.2764 22.3252 91.3591 22.0984 91.3591 21.8447C91.3591 21.591 91.2825 21.3916 91.1283 21.2461C90.9743 21.0951 90.7845 21.0193 90.559 21.0193L90.559 21.0183ZM90.5676 21.6349C90.6169 21.6349 90.6558 21.6548 90.683 21.6847C90.7103 21.7196 90.7245 21.768 90.7245 21.8383C90.7245 21.9031 90.7103 21.9654 90.683 22.0247C90.6609 22.0845 90.6246 22.1408 90.5753 22.1946C90.4973 22.1353 90.4401 22.079 90.4019 22.0247C90.3695 21.9654 90.3526 21.9065 90.3526 21.8472C90.3526 21.7819 90.3747 21.7306 90.4188 21.6927C90.463 21.6528 90.5135 21.6364 90.5676 21.6359L90.5676 21.6349ZM47.1805 21.6748V28.685H48.4511H80.9659C81.3175 28.68 81.6241 28.6242 81.886 28.516C82.1487 28.4079 82.396 28.2454 82.6285 28.0285C82.7428 28.1252 82.8619 28.215 82.9843 28.2982C83.2208 28.4547 83.4875 28.5833 83.7844 28.686C84.0868 28.7887 84.4387 28.859 84.8402 28.8969C85.2415 28.9367 85.7145 28.9367 86.2586 28.9018C86.3288 28.7618 86.3905 28.6162 86.4445 28.4657C86.7319 28.6112 87.0716 28.684 87.4628 28.684H87.767H92.7328L92.9966 27.2435H92.6831V26.5227C92.6831 26.1399 92.6118 25.797 92.4692 25.4944C92.3262 25.1923 92.1254 24.9386 91.867 24.7338C91.614 24.5229 91.3223 24.3639 90.9924 24.2563C90.6679 24.1431 90.3216 24.0863 89.9533 24.0863C89.6288 24.0863 89.307 24.1311 88.988 24.2159C88.6747 24.3021 88.3802 24.4317 88.1053 24.6047L88.6498 25.7945C88.8202 25.7187 89.0208 25.6564 89.2517 25.6081C89.4827 25.5542 89.7134 25.5268 89.9444 25.5268C90.2578 25.5268 90.5247 25.5717 90.7446 25.6564C90.9645 25.7431 91.1327 25.8618 91.2482 26.0128C91.3638 26.1588 91.4212 26.3283 91.4212 26.5227V27.2435H87.767H87.4615C87.2636 27.2435 87.1071 27.2285 86.9915 27.1936C86.8824 27.1637 86.8041 27.1049 86.76 27.0237C86.7392 26.9838 86.7238 26.9354 86.7108 26.8811C86.7108 26.5706 86.6639 26.281 86.5886 26.0118C86.5054 25.7152 86.3856 25.456 86.2262 25.2347C86.0667 25.0134 85.8685 24.8409 85.632 24.7168C85.3955 24.5872 85.1229 24.5229 84.8151 24.5229C84.5127 24.5229 84.2409 24.5738 83.999 24.6759C83.7624 24.7786 83.5475 24.9167 83.3552 25.0892C83.1627 25.2566 82.9871 25.4426 82.8276 25.6479C82.6681 25.8473 82.5192 26.0472 82.3818 26.2466C82.2333 26.4679 82.0903 26.6543 81.9529 26.8053C81.8153 26.9564 81.6642 27.067 81.4993 27.1373C81.3397 27.2076 81.1447 27.2425 80.9137 27.2425H48.4487V21.6728L47.1805 21.6748ZM43.0482 23.1243C42.8392 23.1243 42.6663 23.1916 42.5287 23.3266C42.3913 23.4557 42.3228 23.6257 42.3228 23.8361C42.3228 24.0414 42.3916 24.2114 42.5287 24.346C42.6663 24.4811 42.8392 24.5493 43.0482 24.5493C43.2627 24.5493 43.4359 24.4811 43.5679 24.346C43.7053 24.2114 43.7738 24.0414 43.7738 23.8361C43.7738 23.6257 43.705 23.4557 43.5679 23.3266C43.4359 23.1916 43.2627 23.1243 43.0482 23.1243ZM7.52838 24.2229L0 31.6114L7.52838 38.9995V24.2229ZM29.9502 24.5249C29.6533 24.5249 29.3757 24.5788 29.1172 24.6869C28.8587 24.7946 28.6304 24.9456 28.4325 25.14C28.2345 25.3289 28.0806 25.5532 27.9706 25.8119C27.8602 26.0651 27.8054 26.3433 27.8054 26.6448C27.8054 27.0172 27.8938 27.3606 28.0693 27.6736C28.2453 27.9812 28.4903 28.2264 28.8036 28.4099C29.1227 28.5933 29.4965 28.685 29.9254 28.685H30.7006V29.0579C30.7006 29.3544 30.6265 29.5703 30.4778 29.7048C30.3292 29.8399 30.0849 29.9072 29.7439 29.9072H28.135V30.8383H29.7439C30.1124 30.8383 30.4286 30.7685 30.6925 30.628C30.9619 30.4929 31.1678 30.2905 31.3108 30.0204C31.4593 29.7562 31.5336 29.4352 31.5336 29.0579V24.9536C31.3192 24.8459 31.0743 24.7487 30.7993 24.6625C30.5243 24.5708 30.2416 24.5249 29.9502 24.5249ZM44.8559 24.5299V27.5814C44.8559 27.9971 44.7845 28.35 44.6412 28.6416C44.4982 28.9278 44.2898 29.1436 44.0148 29.2891C43.7399 29.4347 43.4014 29.508 43 29.508C42.5985 29.508 42.2657 29.4347 42.0018 29.2891C41.7433 29.1436 41.5509 28.9278 41.4244 28.6416C41.3036 28.3555 41.2432 28.0076 41.2432 27.5974C41.2432 27.4304 41.2562 27.2629 41.2679 27.0954C41.2848 26.928 41.3108 26.7585 41.3497 26.5855L40.1293 26.3592C40.08 26.5586 40.0412 26.764 40.0139 26.9743C39.9867 27.1847 39.9722 27.3925 39.9722 27.5974C39.9722 28.0669 40.0346 28.5046 40.1615 28.9093C40.2875 29.3141 40.4777 29.6675 40.7306 29.9695C40.9835 30.2771 41.2971 30.5168 41.6711 30.6898C42.0505 30.8623 42.493 30.9485 42.9989 30.9485H43.0004C43.5008 30.9485 43.9432 30.8628 44.3283 30.6898C44.7187 30.5168 45.0463 30.2771 45.3102 29.9695C45.5797 29.6675 45.7804 29.3116 45.9123 28.9013C46.0499 28.4966 46.1184 28.0565 46.1184 27.5814V24.5299H44.8559ZM36.0038 24.7801V27.7514H34.8492H33.8678V24.7806H33.0351V29.0544C33.0351 29.2647 33.0001 29.4377 32.9274 29.5723C32.8559 29.7073 32.7407 29.802 32.5812 29.8559C32.4218 29.9152 32.21 29.9416 31.946 29.9366L32.1033 30.8348C32.4716 30.8299 32.7852 30.7571 33.0436 30.617C33.3075 30.4765 33.5107 30.2741 33.6538 30.0094C33.7968 29.7452 33.8678 29.4267 33.8678 29.0544V28.6825H34.8492H36.8369V24.7801H36.0038ZM29.9502 25.4525C30.1808 25.4525 30.4311 25.4974 30.7006 25.5911V27.7519H29.9254C29.6669 27.7519 29.4413 27.707 29.2488 27.6138C29.0563 27.5171 28.9055 27.3845 28.7955 27.2176C28.6916 27.0501 28.6384 26.8582 28.6384 26.6423C28.6384 26.4156 28.6956 26.2137 28.8116 26.0357C28.9272 25.8578 29.0838 25.7172 29.2818 25.615C29.4797 25.5069 29.7026 25.4525 29.9502 25.4525ZM84.8008 25.938C85.0042 25.938 85.1606 26.0218 85.2706 26.1888C85.3862 26.3508 85.4438 26.608 85.4438 26.9584C85.4438 27.1353 85.4269 27.3108 85.3932 27.4847C85.1919 27.4847 85.0048 27.4847 84.8339 27.4797C84.4545 27.4598 84.1302 27.402 83.8607 27.3098C83.6967 27.251 83.5481 27.1747 83.4149 27.0815C83.5959 26.8123 83.7666 26.5935 83.9258 26.4265C84.0853 26.2595 84.2365 26.1389 84.3793 26.0631C84.5224 25.9824 84.6629 25.941 84.8003 25.941L84.8008 25.938ZM90.2283 29.6296C90.0193 29.6296 89.8462 29.6939 89.7088 29.8235C89.5714 29.9581 89.5029 30.1315 89.5029 30.3419C89.5029 30.5472 89.5716 30.7167 89.7088 30.8518C89.8462 30.9864 90.0193 31.0537 90.2283 31.0537C90.4427 31.0537 90.616 30.9864 90.7479 30.8518C90.8854 30.7167 90.9548 30.5472 90.9548 30.3419C90.9548 30.1315 90.8859 29.9581 90.7479 29.8235C90.616 29.6939 90.4427 29.6296 90.2283 29.6296ZM36.1035 29.7672C35.9494 29.7672 35.8174 29.8185 35.7075 29.9207C35.6023 30.0234 35.5504 30.153 35.5504 30.31C35.5504 30.4605 35.6036 30.5871 35.7075 30.6898C35.8179 30.7975 35.9494 30.8518 36.1035 30.8518C36.2629 30.8518 36.395 30.7975 36.4995 30.6898C36.6034 30.5871 36.6561 30.4605 36.6561 30.31C36.6561 30.153 36.604 30.0234 36.4995 29.9207C36.3955 29.8185 36.2629 29.7672 36.1035 29.7672Z" fill="white"/>
</svg>
