<svg width="202" height="86" viewBox="0 0 202 86" fill="none" xmlns="http://www.w3.org/2000/svg">
<path d="M61.4742 19.1521V22.6781H67.1911V30.3245C67.1911 30.9757 67.0337 31.4682 66.7158 31.8017C66.4139 32.1352 65.9921 32.3019 65.4522 32.3019C64.9758 32.3019 64.4198 32.1514 63.7845 31.8498C63.1652 31.5322 62.5543 31.0632 61.9511 30.4438L59.9503 33.3503C60.6968 34.2079 61.5462 34.8745 62.4992 35.3509C63.4679 35.8114 64.5551 36.043 65.7619 36.043C67.5407 36.043 68.9551 35.5578 70.0031 34.589C71.0515 33.6044 71.5749 32.2151 71.5749 30.4205V19.1521H61.4742ZM74.2429 19.1521V28.968C74.2429 30.4291 74.5528 31.6989 75.1721 32.7788C75.8074 33.8588 76.6967 34.6922 77.8401 35.2798C78.9836 35.8674 80.3257 36.1623 81.8662 36.1623C83.4066 36.1623 84.7401 35.8674 85.8675 35.2798C86.9952 34.6922 87.8607 33.8588 88.4645 32.7788C89.0837 31.6989 89.3935 30.4291 89.3935 28.968V19.1521H85.0344V28.968C85.0344 30.0638 84.7409 30.928 84.1535 31.5633C83.5817 32.1826 82.8265 32.4925 81.8896 32.4925C80.9523 32.4925 80.1666 32.1753 79.5313 31.5401C78.9117 30.9048 78.6022 30.0479 78.6022 28.968V19.1521H74.2429ZM92.3712 19.1521V35.8526H96.2546V25.1555L100.543 34.1849H103.353L107.618 25.1555L107.646 35.8526H111.505V19.1521H106.764L101.953 28.9912L97.1174 19.1521H92.3712ZM120.172 19.1521L113.002 35.8526H117.48L118.65 32.85H125.861L127.008 35.8526H131.653L124.65 19.1521H120.172ZM133.154 19.1521V35.8526H137.228V25.7794L144.803 35.8526H148.616V19.1521H144.59V29.2996L136.99 19.1521H133.154ZM122.291 23.5131L124.603 29.5631H119.933L122.291 23.5131ZM196.65 44.7314C196.34 44.7398 196.051 44.825 195.784 44.9815C195.511 45.1483 195.29 45.3676 195.123 45.6415C194.969 45.9156 194.89 46.2197 194.89 46.5533C194.89 46.8034 194.938 47.0478 195.033 47.2861C195.14 47.5244 195.289 47.7506 195.48 47.965C195.373 48.0015 195.257 48.025 195.139 48.0363C195.032 48.0476 194.914 48.053 194.783 48.053C194.497 48.053 194.175 48.0224 193.818 47.9629C193.461 47.8915 193.133 47.8082 192.835 47.7128L192.388 48.9996C192.805 49.1307 193.235 49.2319 193.675 49.3034C194.116 49.3749 194.491 49.4111 194.801 49.4111C195.42 49.4111 196.005 49.2914 196.553 49.0533C197.113 48.815 197.564 48.4818 197.909 48.053C198.267 47.6124 198.446 47.1123 198.446 46.5525C198.446 45.9927 198.28 45.5524 197.946 45.2309C197.612 44.8974 197.201 44.7306 196.713 44.7306L196.65 44.7314ZM196.731 46.0886C196.838 46.0888 196.922 46.1251 196.981 46.1963C197.04 46.2677 197.071 46.3803 197.071 46.535C197.071 46.6779 197.04 46.8155 196.981 46.9464C196.933 47.0776 196.855 47.2025 196.748 47.3215C196.579 47.1904 196.455 47.0655 196.372 46.9464C196.302 46.8156 196.266 46.685 196.266 46.5538C196.266 46.4109 196.313 46.297 196.409 46.2136C196.505 46.1302 196.614 46.0888 196.731 46.0886ZM102.751 46.1774V61.6505H105.504H175.933C176.695 61.6392 177.359 61.5153 177.926 61.2769C178.495 61.0381 179.031 60.6787 179.534 60.2009C179.782 60.4142 180.04 60.6125 180.305 60.7956C180.817 61.141 181.395 61.4258 182.038 61.652C182.693 61.8783 183.455 62.0339 184.325 62.1174C185.194 62.2001 186.219 62.2063 187.398 62.1342V62.1306C187.549 61.8219 187.683 61.5004 187.8 61.168C188.423 61.4896 189.158 61.6507 190.006 61.6507H190.665H201.421L201.993 58.4709H201.314V56.8803C201.314 56.0346 201.159 55.2776 200.85 54.6106C200.54 53.9436 200.105 53.3837 199.546 52.9312C198.998 52.4666 198.366 52.1154 197.651 51.8771C196.948 51.627 196.198 51.5019 195.4 51.5019C194.698 51.5019 194.001 51.5979 193.31 51.7884C192.631 51.9789 191.993 52.265 191.398 52.6462L192.577 55.2722C192.946 55.1056 193.381 54.968 193.881 54.8607C194.381 54.7417 194.881 54.6816 195.381 54.6816C196.06 54.6816 196.638 54.7776 197.115 54.9681C197.591 55.1586 197.955 55.4212 198.205 55.7547C198.456 56.0763 198.58 56.4513 198.58 56.8801V58.4707H190.665H190.003C189.574 58.4707 189.236 58.4346 188.985 58.3633C188.749 58.2918 188.579 58.1667 188.484 57.9882C188.439 57.8991 188.405 57.7932 188.377 57.6727C188.377 56.9881 188.276 56.3482 188.112 55.7549C187.932 55.0997 187.672 54.5274 187.327 54.0391C186.982 53.5508 186.553 53.1702 186.04 52.8963C185.528 52.6105 184.938 52.4675 184.271 52.4675C183.616 52.4675 183.027 52.58 182.503 52.8062C181.991 53.0325 181.525 53.3368 181.109 53.7179C180.692 54.0872 180.311 54.4982 179.966 54.9508C179.62 55.3915 179.298 55.8318 179 56.2725C178.679 56.7608 178.369 57.172 178.071 57.5055C177.773 57.8391 177.446 58.0836 177.088 58.2383C176.743 58.3931 176.32 58.4709 175.82 58.4709H105.498V46.1776L102.751 46.1774ZM93.8005 49.376C93.3478 49.376 92.973 49.5247 92.675 49.8225C92.3773 50.1084 92.2289 50.4833 92.2289 50.9478C92.2289 51.4004 92.3779 51.7755 92.675 52.0732C92.973 52.371 93.3478 52.5211 93.8005 52.5211C94.265 52.5211 94.6401 52.3711 94.9259 52.0732C95.2236 51.7755 95.3723 51.4004 95.3723 50.9478C95.3723 50.4833 95.223 50.1084 94.9259 49.8225C94.6401 49.5247 94.265 49.376 93.8005 49.376ZM97.7159 52.4841V59.2204C97.7159 60.1376 97.5612 60.9165 97.2509 61.5597C96.9411 62.1909 96.4898 62.6674 95.8942 62.989C95.2988 63.3106 94.5653 63.4718 93.6959 63.4718C92.8262 63.4718 92.1055 63.3105 91.5338 62.989C90.9739 62.6674 90.5573 62.1909 90.2832 61.5597C90.0215 60.9284 89.8908 60.1605 89.8908 59.2553C89.8908 58.886 89.9188 58.5166 89.9441 58.1473C89.9807 57.7781 90.0371 57.403 90.1215 57.0219L87.478 56.5217C87.3711 56.9624 87.2867 57.4151 87.2276 57.8797C87.1686 58.3442 87.1376 58.8027 87.1376 59.2553C87.1376 60.2915 87.2726 61.2567 87.5475 62.15C87.8204 63.0434 88.2325 63.824 88.7804 64.491C89.3282 65.1699 90.0075 65.6991 90.8175 66.0803C91.6394 66.4614 92.5977 66.6516 93.6936 66.6516H93.6973C94.7811 66.6516 95.7394 66.4615 96.5733 66.0803C97.4191 65.6991 98.1287 65.1699 98.7004 64.491C99.284 63.824 99.7187 63.0379 100.005 62.1327C100.302 61.2393 100.451 60.2686 100.451 59.2204V52.4841H97.7159ZM184.24 55.5926C184.68 55.5926 185.019 55.7775 185.257 56.1466C185.508 56.5039 185.633 57.0707 185.633 57.8448C185.633 58.2352 185.596 58.6223 185.523 59.0067C185.087 59.0103 184.682 59.0067 184.311 58.9899C183.49 58.9423 182.787 58.8172 182.203 58.6148C181.848 58.4842 181.527 58.3156 181.238 58.1102C181.63 57.5159 182 57.0336 182.344 56.6649C182.69 56.2957 183.018 56.0291 183.327 55.8623C183.637 55.6837 183.941 55.5934 184.239 55.5934L184.24 55.5926ZM195.996 63.7408C195.544 63.7408 195.169 63.8824 194.871 64.1683C194.573 64.4661 194.425 64.848 194.425 65.3126C194.425 65.7652 194.574 66.1401 194.871 66.4378C195.169 66.7356 195.544 66.8844 195.996 66.8844C196.461 66.8844 196.836 66.7357 197.122 66.4378C197.42 66.1401 197.57 65.7652 197.57 65.3126C197.57 64.848 197.421 64.4661 197.122 64.1683C196.836 63.8824 196.461 63.7408 195.996 63.7408Z" fill="#264653"/>
<path fill-rule="evenodd" clip-rule="evenodd" d="M17.6453 0L17.6456 85.1997L42.6001 60.2453L42.5999 24.9544L17.6453 0Z" fill="#264653"/>
<path fill-rule="evenodd" clip-rule="evenodd" d="M25.9562 9.15527e-05L42.5999 16.6237V9.15527e-05H25.9562Z" fill="#E76F51"/>
<path fill-rule="evenodd" clip-rule="evenodd" d="M42.6001 24.9544L17.6456 49.9088L0 67.5542L17.6456 85.1997L42.6001 60.2453V24.9544Z" fill="#366477"/>
<path fill-rule="evenodd" clip-rule="evenodd" d="M17.6455 49.9088L0 67.5542L17.6455 85.1997V49.9088Z" fill="#46839B"/>
<path fill-rule="evenodd" clip-rule="evenodd" d="M193.163 19.0099C191.924 19.0099 190.765 19.2236 189.685 19.6524C188.621 20.0812 187.684 20.6859 186.874 21.4641C186.08 22.2264 185.452 23.1232 184.991 24.1555C184.547 25.1877 184.324 26.2998 184.324 27.4909C184.324 28.682 184.546 29.8014 184.991 30.8495C185.452 31.8818 186.08 32.7875 186.874 33.5656C187.684 34.3438 188.621 34.9543 189.685 35.399C190.765 35.8277 191.924 36.0432 193.163 36.0432C194.401 36.0432 195.552 35.8279 196.616 35.399C197.696 34.9543 198.634 34.3438 199.428 33.5656C200.238 32.7875 200.865 31.8818 201.309 30.8495C201.77 29.8014 202 28.682 202 27.4909C202 26.2998 201.769 25.1951 201.309 24.1787C200.865 23.1464 200.238 22.2423 199.428 21.4641C198.634 20.6859 197.696 20.0812 196.616 19.6524C195.552 19.2236 194.401 19.0099 193.163 19.0099ZM152.451 19.1774V35.853H155.262V30.7786H159.098C161.194 30.7786 162.813 30.2625 163.957 29.2302C165.116 28.1821 165.695 26.7205 165.695 24.8465C165.695 23.0519 165.116 21.6625 163.957 20.6779C162.813 19.6774 161.194 19.1774 159.098 19.1774H152.451ZM168.483 19.1774V35.853H171.293V30.7786H175.248C175.504 30.7786 175.751 30.7703 175.991 30.756L179.061 35.8538H182.252L178.491 30.2545C179.147 30.0032 179.719 29.6624 180.203 29.2308C181.379 28.1826 181.966 26.721 181.966 24.847C181.966 23.0524 181.379 21.6631 180.203 20.6785C179.044 19.678 177.392 19.178 175.248 19.178L168.483 19.1774ZM193.19 21.3917C194 21.3917 194.763 21.5511 195.477 21.8688C196.208 22.1705 196.844 22.5996 197.384 23.1554C197.924 23.7112 198.344 24.3616 198.646 25.1081C198.963 25.8386 199.123 26.6337 199.123 27.4913C199.123 28.3489 198.962 29.1512 198.646 29.8976C198.344 30.6441 197.924 31.3018 197.384 31.8736C196.844 32.4294 196.208 32.8674 195.477 33.185C194.763 33.5026 194 33.6604 193.19 33.6604C192.38 33.6604 191.61 33.5026 190.88 33.185C190.165 32.8674 189.53 32.4294 188.974 31.8736C188.418 31.3018 187.981 30.6441 187.664 29.8976C187.346 29.1512 187.189 28.3489 187.189 27.4913C187.189 26.6337 187.338 25.8386 187.641 25.1081C187.958 24.3616 188.395 23.7112 188.951 23.1554C189.506 22.5996 190.142 22.1705 190.857 21.8688C191.587 21.5511 192.365 21.3917 193.19 21.3917ZM155.262 21.5823H158.978C160.265 21.5823 161.257 21.8611 161.956 22.4169C162.655 22.9569 163.004 23.7902 163.004 24.9177C163.004 26.0929 162.655 26.9675 161.956 27.5392C161.257 28.095 160.265 28.3725 158.978 28.3725H155.262V21.5823ZM171.293 21.5823H175.248C176.535 21.5823 177.527 21.8611 178.226 22.4169C178.941 22.9569 179.298 23.7902 179.298 24.9177C179.298 26.0929 178.941 26.9675 178.226 27.5392C177.527 28.095 176.535 28.3725 175.248 28.3725H171.293V21.5823ZM65.4291 52.4674C64.7859 52.4674 64.1846 52.5869 63.6247 52.825C63.0648 53.0633 62.5705 53.3966 62.1417 53.8254C61.7129 54.2423 61.3795 54.7367 61.1412 55.3084C60.9021 55.8682 60.7835 56.4807 60.7835 57.1477C60.7835 57.9695 60.9749 58.7266 61.355 59.4174C61.7362 60.0963 62.267 60.6379 62.9456 61.0429C63.6367 61.4479 64.4463 61.6506 65.3754 61.6506H67.0546V62.4722C67.0546 63.1273 66.8942 63.6037 66.572 63.9015C66.2502 64.1993 65.7211 64.3478 64.9826 64.3478H61.4973V66.4023H64.9826C65.7807 66.4023 66.4653 66.248 67.0371 65.9384C67.6206 65.6406 68.0666 65.1935 68.3764 64.5979C68.698 64.0143 68.8589 63.3059 68.8589 62.4722V53.4138C68.3944 53.1755 67.864 52.9619 67.2683 52.7712C66.6727 52.5687 66.0602 52.4674 65.4291 52.4674ZM73.915 53.0379L72.1114 53.0381V62.4714C72.1114 62.9359 72.0355 63.3166 71.8779 63.6144C71.7231 63.9122 71.4734 64.1218 71.1279 64.2409C70.7827 64.3712 70.3239 64.4296 69.7522 64.4183L70.0928 66.4015C70.8907 66.3902 71.5699 66.2298 72.1295 65.9201C72.7013 65.6104 73.1416 65.1633 73.4514 64.5796C73.7612 63.996 73.915 63.2933 73.915 62.4714V61.6498H76.0408H80.3461V53.0379H78.5418V59.5953H76.0408H73.915V53.0379ZM65.4291 54.5211C65.9285 54.5211 66.4707 54.6233 67.0546 54.8265V59.5955H65.3754C64.8155 59.5955 64.3267 59.4943 63.9097 59.2917C63.4927 59.0772 63.1664 58.7856 62.9281 58.4164C62.703 58.0471 62.5879 57.6234 62.5879 57.1469C62.5879 56.6467 62.7117 56.201 62.9629 55.8079C63.2134 55.4148 63.5521 55.1052 63.981 54.8789C64.4098 54.6405 64.8928 54.5211 65.4291 54.5211ZM78.7578 64.0432C78.4241 64.0432 78.138 64.1571 77.9 64.3834C77.6721 64.6096 77.5596 64.896 77.5596 65.2414C77.5596 65.5749 77.6749 65.854 77.9 66.0803C78.1392 66.3187 78.4241 66.4379 78.7578 66.4379C79.103 66.4379 79.3892 66.3184 79.6154 66.0803C79.8405 65.8541 79.9545 65.5749 79.9545 65.2414C79.9545 64.896 79.8419 64.6097 79.6154 64.3834C79.3903 64.1572 79.103 64.0432 78.7578 64.0432Z" fill="#E76F51"/>
</svg>
