<svg width="79" height="123" viewBox="0 0 79 123" fill="none" xmlns="http://www.w3.org/2000/svg">
<path d="M8.38636 123C6.15 123 4.19318 122.161 2.51591 120.484C0.838635 118.807 0 116.85 0 114.614V8.38636C0 6.15 0.838635 4.19318 2.51591 2.51591C4.19318 0.838637 6.15 0 8.38636 0H69.8864C72.1227 0 74.0795 0.838637 75.7568 2.51591C77.4341 4.19318 78.2727 6.15 78.2727 8.38636V114.614C78.2727 116.85 77.4341 118.807 75.7568 120.484C74.0795 122.161 72.1227 123 69.8864 123H8.38636ZM8.38636 102.034V114.614H69.8864V102.034H8.38636ZM39.1364 112.517C40.3477 112.517 41.3494 112.121 42.1415 111.329C42.9335 110.537 43.3295 109.535 43.3295 108.324C43.3295 107.112 42.9335 106.111 42.1415 105.319C41.3494 104.527 40.3477 104.131 39.1364 104.131C37.925 104.131 36.9233 104.527 36.1312 105.319C35.3392 106.111 34.9432 107.112 34.9432 108.324C34.9432 109.535 35.3392 110.537 36.1312 111.329C36.9233 112.121 37.925 112.517 39.1364 112.517ZM8.38636 93.6477H69.8864V20.9659H8.38636V93.6477ZM8.38636 12.5795H69.8864V8.38636H8.38636V12.5795ZM8.38636 102.034V114.614V102.034ZM8.38636 12.5795V8.38636V12.5795Z" fill="#46839B"/>
</svg>
