<svg width="99" height="73" viewBox="0 0 99 73" fill="none" xmlns="http://www.w3.org/2000/svg">
<path d="M55.9659 43.216C52.2348 43.216 49.0634 41.9101 46.4517 39.2984C43.84 36.6866 42.5341 33.5152 42.5341 29.7842C42.5341 26.0531 43.84 22.8817 46.4517 20.27C49.0634 17.6582 52.2348 16.3523 55.9659 16.3523C59.697 16.3523 62.8684 17.6582 65.4801 20.27C68.0919 22.8817 69.3977 26.0531 69.3977 29.7842C69.3977 33.5152 68.0919 36.6866 65.4801 39.2984C62.8684 41.9101 59.697 43.216 55.9659 43.216ZM20.1477 58.8864C18.2822 58.8864 16.6965 58.2335 15.3906 56.9276C14.0848 55.6217 13.4318 54.036 13.4318 52.1705V7.39779C13.4318 5.53226 14.0848 3.94656 15.3906 2.64069C16.6965 1.33482 18.2822 0.681885 20.1477 0.681885H91.7841C93.6496 0.681885 95.2353 1.33482 96.5412 2.64069C97.8471 3.94656 98.5 5.53226 98.5 7.39779V52.1705C98.5 54.036 97.8471 55.6217 96.5412 56.9276C95.2353 58.2335 93.6496 58.8864 91.7841 58.8864H20.1477ZM31.3409 52.1705H80.5909C80.5909 49.0364 81.6729 46.3874 83.8369 44.2234C86.0009 42.0593 88.65 40.9773 91.7841 40.9773V18.591C88.65 18.591 86.0009 17.509 83.8369 15.345C81.6729 13.1809 80.5909 10.5319 80.5909 7.39779H31.3409C31.3409 10.5319 30.2589 13.1809 28.0949 15.345C25.9309 17.509 23.2818 18.591 20.1477 18.591V40.9773C23.2818 40.9773 25.9309 42.0593 28.0949 44.2234C30.2589 46.3874 31.3409 49.0364 31.3409 52.1705ZM85.0682 72.3182H6.71591C4.85038 72.3182 3.26468 71.6653 1.95881 70.3594C0.652936 69.0536 0 67.4679 0 65.6023V14.1137H6.71591V65.6023H85.0682V72.3182ZM20.1477 52.1705V7.39779V52.1705Z" fill="#46839B"/>
</svg>
