<svg width="99" height="55" viewBox="0 0 99 55" fill="none" xmlns="http://www.w3.org/2000/svg">
<path d="M4.47727 54.4195V47.5917H94.0227V54.4195H4.47727ZM8.73068 25.9888L4.25341 23.5263L8.73068 15.915H0V10.878H8.73068L4.25341 3.26669L8.73068 0.804187L12.9841 8.30362L17.2375 0.804187L21.7148 3.26669L17.2375 10.878H25.9682V15.915H17.2375L21.7148 23.5263L17.2375 25.9888L12.9841 18.4894L8.73068 25.9888ZM44.9966 25.9888L40.5193 23.3025L44.9966 15.6911H36.2659V10.6542H44.9966L40.5193 3.04282L44.9966 0.580322L49.25 8.07975L53.5034 0.580322L57.9807 3.04282L53.5034 10.6542H62.2341V15.6911H53.5034L57.9807 23.3025L53.5034 25.9888L49.25 18.4894L44.9966 25.9888ZM81.2625 25.9888L76.7852 23.3025L81.2625 15.6911H72.5318V10.6542H81.2625L76.7852 3.04282L81.2625 0.580322L85.5159 8.07975L89.7693 0.580322L94.2466 3.04282L89.7693 10.6542H98.5V15.6911H89.7693L94.2466 23.3025L89.7693 25.9888L85.5159 18.4894L81.2625 25.9888Z" fill="#46839B"/>
</svg>
