<svg width="123" height="123" viewBox="0 0 123 123" fill="none" xmlns="http://www.w3.org/2000/svg">
<path d="M37.625 122.25H10.125C7.625 122.25 5.4375 121.312 3.5625 119.437C1.6875 117.562 0.75 115.375 0.75 112.875V85.375C5.33333 84.8542 9.26562 83.0573 12.5469 79.9844C15.8281 76.9115 17.4688 73.1354 17.4688 68.6562C17.4688 64.1771 15.8281 60.401 12.5469 57.3281C9.26562 54.2552 5.33333 52.4583 0.75 51.9375V24.4375C0.75 21.9375 1.6875 19.75 3.5625 17.875C5.4375 16 7.625 15.0625 10.125 15.0625H37.7812C38.9271 10.8958 40.9844 7.40625 43.9531 4.59375C46.9219 1.78125 50.4896 0.375 54.6562 0.375C58.8229 0.375 62.3906 1.78125 65.3594 4.59375C68.3281 7.40625 70.3854 10.8958 71.5312 15.0625H98.5625C101.062 15.0625 103.25 16 105.125 17.875C107 19.75 107.938 21.9375 107.938 24.4375V51.4688C112.104 52.6146 115.516 54.776 118.172 57.9531C120.828 61.1302 122.156 64.8021 122.156 68.9688C122.156 73.1354 120.828 76.625 118.172 79.4375C115.516 82.25 112.104 84.2292 107.938 85.375V112.875C107.938 115.375 107 117.562 105.125 119.437C103.25 121.312 101.062 122.25 98.5625 122.25H71.0625C70.5417 117.25 68.6927 113.214 65.5156 110.141C62.3385 107.068 58.6146 105.531 54.3438 105.531C50.0729 105.531 46.349 107.068 43.1719 110.141C39.9948 113.214 38.1458 117.25 37.625 122.25ZM10.125 112.875H30.4375C33.0417 106.521 36.6875 102.146 41.375 99.75C46.0625 97.3542 50.3854 96.1563 54.3438 96.1563C58.3021 96.1563 62.625 97.3542 67.3125 99.75C72 102.146 75.6458 106.521 78.25 112.875H98.5625V76.1562H105.594C107.677 76.1562 109.396 75.4792 110.75 74.125C112.104 72.7708 112.781 71.0521 112.781 68.9688C112.781 66.8854 112.104 65.1667 110.75 63.8125C109.396 62.4583 107.677 61.7812 105.594 61.7812H98.5625V24.4375H61.8437V16.9375C61.8437 14.8542 61.1667 13.1354 59.8125 11.7812C58.4583 10.4271 56.7396 9.75 54.6562 9.75C52.5729 9.75 50.8542 10.4271 49.5 11.7812C48.1458 13.1354 47.4688 14.8542 47.4688 16.9375V24.4375H10.125V44.75C15.125 46.625 19.1615 49.75 22.2344 54.125C25.3073 58.5 26.8438 63.3438 26.8438 68.6562C26.8438 73.9688 25.3073 78.8125 22.2344 83.1875C19.1615 87.5625 15.125 90.6875 10.125 92.5625V112.875Z" fill="white"/>
</svg>
