<svg width="112" height="123" viewBox="0 0 112 123" fill="none" xmlns="http://www.w3.org/2000/svg">
<path d="M16.1438 123C11.6338 123 7.81563 121.437 4.68938 118.311C1.56313 115.184 0 111.366 0 106.856V87.6375H19.5263V0L28.7513 9.225L37.9763 0L47.0475 9.225L56.2725 0L65.4975 9.225L74.7225 0L83.9475 9.225L93.1725 0L102.398 9.225L111.623 0V106.856C111.623 111.366 110.059 115.184 106.933 118.311C103.807 121.437 99.9888 123 95.4788 123H16.1438ZM95.4788 113.775C97.5288 113.775 99.1944 113.134 100.476 111.853C101.757 110.572 102.398 108.906 102.398 106.856V15.375H28.7513V87.6375H88.56V106.856C88.56 108.906 89.2006 110.572 90.4819 111.853C91.7631 113.134 93.4288 113.775 95.4788 113.775ZM36.9 39.6675V30.4425H73.8V39.6675H36.9ZM36.9 60.27V51.045H73.8V60.27H36.9ZM88.0987 39.6675C86.8688 39.6675 85.7925 39.2063 84.87 38.2838C83.9475 37.3613 83.4863 36.285 83.4863 35.055C83.4863 33.825 83.9475 32.7488 84.87 31.8263C85.7925 30.9038 86.8688 30.4425 88.0987 30.4425C89.3288 30.4425 90.405 30.9038 91.3275 31.8263C92.25 32.7488 92.7113 33.825 92.7113 35.055C92.7113 36.285 92.25 37.3613 91.3275 38.2838C90.405 39.2063 89.3288 39.6675 88.0987 39.6675ZM88.0987 59.5013C86.8688 59.5013 85.7925 59.04 84.87 58.1175C83.9475 57.195 83.4863 56.1188 83.4863 54.8888C83.4863 53.6588 83.9475 52.5825 84.87 51.66C85.7925 50.7375 86.8688 50.2763 88.0987 50.2763C89.3288 50.2763 90.405 50.7375 91.3275 51.66C92.25 52.5825 92.7113 53.6588 92.7113 54.8888C92.7113 56.1188 92.25 57.195 91.3275 58.1175C90.405 59.04 89.3288 59.5013 88.0987 59.5013ZM15.99 113.775H79.335V96.8625H9.225V106.856C9.225 108.906 9.86563 110.572 11.1469 111.853C12.4281 113.134 14.0425 113.775 15.99 113.775ZM9.225 113.775V96.8625V113.775Z" fill="#46839B"/>
</svg>
