<svg width="100" height="132" viewBox="0 0 100 132" fill="none" xmlns="http://www.w3.org/2000/svg">
<path d="M9.375 131.5C6.77083 131.5 4.55729 130.589 2.73438 128.766C0.911458 126.943 0 124.729 0 122.125V54.3125C0 51.7083 0.911458 49.4948 2.73438 47.6719C4.55729 45.849 6.77083 44.9375 9.375 44.9375H20.3125V29.9375C20.3125 21.7083 23.2031 14.7031 28.9844 8.92188C34.7656 3.14063 41.7708 0.25 50 0.25C58.2292 0.25 65.2344 3.14063 71.0156 8.92188C76.7969 14.7031 79.6875 21.7083 79.6875 29.9375V44.9375H90.625C93.2292 44.9375 95.4427 45.849 97.2656 47.6719C99.0885 49.4948 100 51.7083 100 54.3125V122.125C100 124.729 99.0885 126.943 97.2656 128.766C95.4427 130.589 93.2292 131.5 90.625 131.5H9.375ZM9.375 122.125H90.625V54.3125H9.375V122.125ZM50 100.25C53.3333 100.25 56.1719 99.1042 58.5156 96.8125C60.8594 94.5208 62.0312 91.7604 62.0312 88.5312C62.0312 85.4062 60.8594 82.5677 58.5156 80.0156C56.1719 77.4635 53.3333 76.1875 50 76.1875C46.6667 76.1875 43.8281 77.4635 41.4844 80.0156C39.1406 82.5677 37.9688 85.4062 37.9688 88.5312C37.9688 91.7604 39.1406 94.5208 41.4844 96.8125C43.8281 99.1042 46.6667 100.25 50 100.25ZM29.6875 44.9375H70.3125V29.9375C70.3125 24.3125 68.3333 19.5208 64.375 15.5625C60.4167 11.6042 55.625 9.625 50 9.625C44.375 9.625 39.5833 11.6042 35.625 15.5625C31.6667 19.5208 29.6875 24.3125 29.6875 29.9375V44.9375ZM9.375 122.125V54.3125V122.125Z" fill="white"/>
</svg>
