<svg width="138" height="123" viewBox="0 0 138 123" fill="none" xmlns="http://www.w3.org/2000/svg">
<path d="M62.1667 123V112.75H120.25V60.8167C120.25 54.2111 118.826 47.8618 115.979 41.7688C113.132 35.6757 109.317 30.2944 104.533 25.625C99.75 20.9556 94.2833 17.2257 88.1333 14.4354C81.9833 11.6451 75.6055 10.25 69 10.25C62.3944 10.25 56.0167 11.6451 49.8667 14.4354C43.7167 17.2257 38.25 20.9556 33.4667 25.625C28.6833 30.2944 24.868 35.6757 22.0208 41.7688C19.1736 47.8618 17.75 54.2111 17.75 60.8167V102.5H14.3333C10.575 102.5 7.35763 101.162 4.68124 98.4854C2.00485 95.809 0.666656 92.5917 0.666656 88.8333V75.1667C0.666656 72.5472 1.29305 70.241 2.54582 68.2479C3.7986 66.2549 5.44999 64.6319 7.49999 63.3792L8.01249 54.325C9.03749 46.0111 11.4007 38.4944 15.1021 31.775C18.8035 25.0556 23.416 19.3611 28.9396 14.6917C34.4632 10.0222 40.6701 6.40625 47.5604 3.84375C54.4507 1.28125 61.5972 0 69 0C76.5167 0 83.7201 1.28125 90.6104 3.84375C97.5007 6.40625 103.679 10.0507 109.146 14.7771C114.612 19.5035 119.197 25.1979 122.898 31.8604C126.599 38.5229 128.962 45.9542 129.987 54.1542L130.5 63.0375C132.55 64.0625 134.201 65.5715 135.454 67.5646C136.707 69.5576 137.333 71.75 137.333 74.1417V89.8583C137.333 92.3639 136.707 94.5847 135.454 96.5208C134.201 98.4569 132.55 99.9375 130.5 100.963V112.75C130.5 115.597 129.503 118.017 127.51 120.01C125.517 122.003 123.097 123 120.25 123H62.1667ZM48.5 73.4583C47.1333 73.4583 45.9375 72.9458 44.9125 71.9208C43.8875 70.8958 43.375 69.6431 43.375 68.1625C43.375 66.7958 43.8875 65.6285 44.9125 64.6604C45.9375 63.6924 47.1903 63.2083 48.6708 63.2083C50.0375 63.2083 51.2049 63.6924 52.1729 64.6604C53.141 65.6285 53.625 66.8528 53.625 68.3333C53.625 69.7 53.141 70.8958 52.1729 71.9208C51.2049 72.9458 49.9805 73.4583 48.5 73.4583ZM89.5 73.4583C88.1333 73.4583 86.9375 72.9458 85.9125 71.9208C84.8875 70.8958 84.375 69.6431 84.375 68.1625C84.375 66.7958 84.8875 65.6285 85.9125 64.6604C86.9375 63.6924 88.1903 63.2083 89.6708 63.2083C91.0375 63.2083 92.2049 63.6924 93.1729 64.6604C94.141 65.6285 94.625 66.8528 94.625 68.3333C94.625 69.7 94.141 70.8958 93.1729 71.9208C92.2049 72.9458 90.9805 73.4583 89.5 73.4583ZM28.1708 64.575C27.7153 57.8556 28.6549 51.7625 30.9896 46.2958C33.3243 40.8292 36.4562 36.1882 40.3854 32.3729C44.3146 28.5576 48.8417 25.625 53.9667 23.575C59.0917 21.525 64.2167 20.5 69.3417 20.5C79.7056 20.5 88.418 23.7743 95.4792 30.3229C102.54 36.8715 106.868 45.0431 108.462 54.8375C97.7569 54.7236 88.3326 51.8479 80.1896 46.2104C72.0465 40.5729 65.7542 33.2556 61.3125 24.2583C59.4903 33.4833 55.6465 41.6549 49.7812 48.7729C43.916 55.891 36.7125 61.1583 28.1708 64.575Z" fill="#D4D4D4"/>
</svg>
