<svg width="99" height="55" viewBox="0 0 99 55" fill="none" xmlns="http://www.w3.org/2000/svg">
<path d="M26.8636 54.3637C19.4015 54.3637 13.0587 51.752 7.83523 46.5285C2.61174 41.305 0 34.9622 0 27.5001C0 20.038 2.61174 13.6952 7.83523 8.4717C13.0587 3.24822 19.4015 0.636475 26.8636 0.636475H71.6364C79.0985 0.636475 85.4413 3.24822 90.6648 8.4717C95.8883 13.6952 98.5 20.038 98.5 27.5001C98.5 34.9622 95.8883 41.305 90.6648 46.5285C85.4413 51.752 79.0985 54.3637 71.6364 54.3637H26.8636ZM26.8636 47.6478H71.6364C77.2329 47.6478 81.9901 45.689 85.9077 41.7714C89.8253 37.8538 91.7841 33.0967 91.7841 27.5001C91.7841 21.9035 89.8253 17.1464 85.9077 13.2288C81.9901 9.31119 77.2329 7.35238 71.6364 7.35238H26.8636C21.267 7.35238 16.5099 9.31119 12.5923 13.2288C8.67472 17.1464 6.71591 21.9035 6.71591 27.5001C6.71591 33.0967 8.67472 37.8538 12.5923 41.7714C16.5099 45.689 21.267 47.6478 26.8636 47.6478ZM71.7483 38.8052C74.8824 38.8052 77.5501 37.7046 79.7514 35.5032C81.9527 33.3019 83.0534 30.6342 83.0534 27.5001C83.0534 24.366 81.9527 21.6983 79.7514 19.497C77.5501 17.2957 74.8824 16.195 71.7483 16.195C68.6142 16.195 65.9465 17.2957 63.7452 19.497C61.5438 21.6983 60.4432 24.366 60.4432 27.5001C60.4432 30.6342 61.5438 33.3019 63.7452 35.5032C65.9465 37.7046 68.6142 38.8052 71.7483 38.8052Z" fill="#46839B"/>
</svg>
