<svg width="12" height="10" viewBox="0 0 12 10" fill="none" xmlns="http://www.w3.org/2000/svg">
<path d="M12 1.17647C11.5583 1.38235 11.0822 1.51765 10.5889 1.58235C11.0937 1.27059 11.4837 0.776471 11.6673 0.182353C11.1912 0.476471 10.6635 0.682353 10.1071 0.8C9.65392 0.294118 9.01721 0 8.29446 0C6.94646 0 5.84512 1.12941 5.84512 2.52353C5.84512 2.72353 5.86807 2.91765 5.90822 3.1C3.86616 2.99412 2.0478 1.98824 0.837476 0.464706C0.625239 0.835294 0.50478 1.27059 0.50478 1.72941C0.50478 2.60588 0.934991 3.38235 1.60038 3.82353C1.19312 3.82353 0.814532 3.70588 0.481836 3.52941V3.54706C0.481836 4.77059 1.33078 5.79412 2.45507 6.02353C2.09411 6.12483 1.71516 6.13892 1.34799 6.06471C1.50379 6.56616 1.80891 7.00495 2.22047 7.31937C2.63202 7.6338 3.12932 7.80805 3.64245 7.81765C2.77264 8.52379 1.69445 8.90548 0.585086 8.9C0.390057 8.9 0.195029 8.88824 0 8.86471C1.08987 9.58235 2.38623 10 3.77438 10C8.29446 10 10.7782 6.15294 10.7782 2.81765C10.7782 2.70588 10.7782 2.6 10.7725 2.48824C11.2543 2.13529 11.6673 1.68824 12 1.17647Z" fill="#F8F8F8"/>
</svg>
