<svg width="13" height="8" viewBox="0 0 13 8" fill="none" xmlns="http://www.w3.org/2000/svg">
<path d="M5.2 5.71429L8.5735 4L5.2 2.28571V5.71429ZM12.714 1.24C12.7985 1.50857 12.857 1.86857 12.896 2.32571C12.9415 2.78286 12.961 3.17714 12.961 3.52L13 4C13 5.25143 12.896 6.17143 12.714 6.76C12.5515 7.27429 12.1745 7.60571 11.5895 7.74857C11.284 7.82286 10.725 7.87429 9.867 7.90857C9.022 7.94857 8.2485 7.96571 7.5335 7.96571L6.5 8C3.7765 8 2.08 7.90857 1.4105 7.74857C0.8255 7.60571 0.4485 7.27429 0.286 6.76C0.2015 6.49143 0.143 6.13143 0.104 5.67429C0.0585001 5.21714 0.039 4.82286 0.039 4.48L0 4C0 2.74857 0.104 1.82857 0.286 1.24C0.4485 0.725714 0.8255 0.394286 1.4105 0.251429C1.716 0.177143 2.275 0.125714 3.133 0.0914285C3.978 0.0514285 4.7515 0.0342857 5.4665 0.0342857L6.5 0C9.2235 0 10.92 0.0914286 11.5895 0.251429C12.1745 0.394286 12.5515 0.725714 12.714 1.24Z" fill="#F8F8F8"/>
</svg>
